<?xml version="1.0" encoding="UTF-8"?>
<svg width="88px" height="28px" viewBox="0 0 88 28" version="1.1" xmlns="http://www.w3.org/2000/svg" xmlns:xlink="http://www.w3.org/1999/xlink">
    <!-- Generator: Sketch 52.2 (67145) - http://www.bohemiancoding.com/sketch -->
    <title>Shape</title>
    <desc>Created with Sketch.</desc>
    <g id="Home-/-Cadastro" stroke="none" stroke-width="1" fill="none" fill-rule="evenodd">
        <g id="1-Splash" transform="translate(-918.000000, -1355.000000)" fill="#FFFFFF">
            <g id="rodapé-logo" transform="translate(0.000000, 1323.000000)">
                <g id="Shape">
                    <path d="M947.49469,40.5138124 C946.47869,39.3458124 944.88069,37.0158124 945.77169,36.9498124 C947.07369,36.8528124 947.97769,41.0698124 947.49469,40.5138124 M937.60369,47.2448124 C939.27569,42.1948124 941.97669,39.6048124 942.16969,41.1588124 C942.46869,43.5638124 937.19669,48.4738124 937.60369,47.2448124 M975.09769,47.8278124 C968.25469,54.1288124 970.14569,47.8928124 970.14569,47.8928124 C970.14569,47.8928124 971.49869,42.6828124 973.10569,39.7698124 C973.41169,39.2158124 970.65569,39.0728124 970.34069,40.1578124 C966.86769,52.1378124 960.25669,53.4938124 963.74869,47.6528124 C968.42269,39.8368124 966.08069,41.0478124 965.91969,40.5628124 C965.78469,40.1558124 964.40169,38.7208124 964.24769,39.8828124 C963.63669,44.4798124 959.46969,50.6768124 959.08469,50.6768124 C958.36469,50.6768124 959.69769,47.0048124 960.27669,44.7388124 C960.85569,42.4728124 959.35969,43.3788124 959.35969,43.3788124 C958.00969,44.6088124 956.60969,49.7168124 954.15069,50.9548124 C953.86169,51.1008124 953.91069,49.7898124 955.16369,46.7788124 C957.30869,41.6288124 959.74569,41.2428124 959.50469,42.3588124 C958.97169,44.8278124 962.97369,36.2678124 959.26369,38.6688124 C954.53669,41.7288124 952.70369,48.9638124 952.70369,48.9638124 C950.83869,52.3308124 949.82369,52.4248124 949.17969,51.4538124 C948.36569,50.2238124 951.04469,46.5978124 951.04469,46.5978124 C952.97369,43.0738124 948.49469,41.4608124 948.49469,41.4608124 C949.44069,38.6908124 947.45969,34.4888124 944.99969,33.9058124 C940.96769,32.9508124 945.89969,40.7058124 947.18669,41.9358124 C946.41469,44.7198124 943.90669,48.2158124 943.90669,48.2158124 C940.04669,54.8858124 936.51069,50.9358124 937.66769,49.4458124 C941.78369,47.4388124 947.44369,41.9358124 942.49169,38.5038124 C939.21469,36.2338124 935.41669,47.9568124 935.41669,47.9568124 C934.908614,48.1041671 934.397139,48.239538 933.88269,48.3628124 C933.461044,48.4636417 933.037645,48.5569897 932.61269,48.6428124 C934.74869,41.9298124 939.23269,35.0508124 939.23269,35.0508124 C939.61069,34.1008124 938.02469,33.5938124 938.02469,33.5938124 C938.02469,33.5938124 937.25269,33.3398124 936.35769,33.8618124 C935.46169,34.3848124 934.42369,35.4408124 933.88769,36.0318124 C931.14069,39.0628124 928.76769,43.0178124 928.97769,42.3968124 C930.93569,36.6168124 932.36269,32.5068124 930.80269,32.1068124 L927.46669,32.0068124 C926.61069,31.9268124 925.84469,32.5778124 925.84469,32.5778124 C925.84469,32.5778124 923.51969,34.5938124 922.68469,35.1848124 C922.17469,35.5448124 919.47069,36.6568124 919.47069,34.9128124 C919.46969,33.1768124 921.61369,32.1988124 921.90969,32.3568124 C922.20469,32.5148124 921.83669,34.0798124 921.83669,34.0798124 C921.83669,34.0798124 922.49069,33.4138124 922.46369,32.7298124 C922.43669,32.0428124 921.48569,32.3008124 921.48569,32.3008124 L920.85269,32.6008124 C920.85269,32.6008124 918.07269,34.4008124 919.28669,36.3108124 C920.34969,37.9838124 922.75569,35.7148124 922.75569,35.7148124 C922.75569,35.7148124 926.16369,32.8048124 927.43469,32.4068124 C928.17069,32.1768124 928.18169,33.6428124 928.18169,33.6428124 C928.18169,33.6428124 928.68069,36.5198124 926.05769,42.3298124 C922.73869,49.6798124 921.80369,48.6058124 922.40769,49.4638124 C923.26969,50.4148124 925.81369,48.8958124 926.50769,48.0598124 C928.21969,45.9978124 931.83069,39.7418124 933.68969,37.3848124 C934.56569,36.2748124 936.27869,35.0458124 936.21169,35.3138124 C936.09969,35.7658124 934.48669,37.8528124 933.75669,39.3898124 C932.85669,41.2818124 932.03069,42.4968124 929.66869,48.2968124 C929.54269,48.6048124 929.43569,48.9018124 929.33669,49.1938124 C924.79069,49.8408124 921.30769,50.0508124 919.01669,53.2018124 C915.15969,58.5118124 923.51969,60.0008124 923.51969,60.0008124 C923.51969,60.0008124 915.57769,53.7238124 928.88569,50.8888124 C928.47569,53.0588124 928.85169,54.7188124 929.55769,56.0698124 C931.77769,59.4698124 937.28069,59.6598124 939.58869,58.1928124 C942.33869,56.4448124 942.86869,54.7928124 942.86869,54.7928124 C942.86869,54.7928124 940.93469,56.4198124 938.86569,56.8328124 C933.71869,57.8598124 931.56569,53.3588124 932.16269,50.2448124 C932.52069,50.1698124 932.84069,50.1018124 933.12569,50.0398124 C934.22169,49.8018124 934.81569,49.6598124 935.22569,49.6408124 C934.32469,53.3308124 937.66869,55.9858124 941.39869,52.7488124 C944.71569,49.8698124 947.98069,42.5388124 947.98069,42.5388124 C949.97469,43.8348124 949.93069,43.8558124 949.11669,45.5828124 C948.88869,46.0658124 947.37969,49.1138124 947.12269,50.0938124 C946.69469,51.7338124 947.76569,53.3318124 949.24569,53.3958124 C950.72469,53.4608124 951.12969,52.5568124 952.52569,49.8358124 C952.19069,51.3438124 952.58169,53.4978124 954.15169,52.7518124 C955.88869,51.9258124 956.57369,49.8008124 957.09169,48.6478124 C957.38169,48.0028124 958.74969,45.5648124 958.48469,46.1878124 C957.60569,48.2588124 957.09169,49.9958124 957.09169,51.0878124 C957.28469,52.7708124 957.84469,52.4118124 958.35569,52.3178124 C959.21569,52.1578124 960.79169,50.3238124 961.82069,48.5748124 C961.23969,50.4988124 961.44869,50.6928124 961.52869,51.3248124 C961.64569,52.2348124 964.76369,52.5088124 967.56069,48.6728124 C967.30369,50.7768124 968.57069,51.7778124 969.66469,51.8098124 C971.20769,51.8558124 972.43969,51.8638124 974.45269,50.5098124 C976.67869,49.0098124 982.46069,41.6698124 992.10869,41.1838124 C1001.22869,40.7248124 1005.93169,44.3358124 1006.00069,44.3888124 C991.72169,28.7508124 979.44869,43.8228124 975.09869,47.8278124"></path>
                </g>
            </g>
        </g>
    </g>
</svg>